<?xml version="1.0" encoding="UTF-8"?>
<svg width="700pt" height="700pt" version="1.1" viewBox="0 0 700 700" xmlns="http://www.w3.org/2000/svg" xmlns:xlink="http://www.w3.org/1999/xlink">
 <defs>
  <symbol id="t" overflow="visible">
   <path d="m6.2344-0.375c-0.32422 0.16797-0.66406 0.29297-1.0156 0.375-0.34375 0.082031-0.70312 0.125-1.0781 0.125-1.1367 0-2.0312-0.3125-2.6875-0.9375-0.65625-0.63281-0.98438-1.4883-0.98438-2.5625 0-1.082 0.32812-1.9414 0.98438-2.5781 0.65625-0.63281 1.5508-0.95312 2.6875-0.95312 0.375 0 0.73438 0.046875 1.0781 0.14062 0.35156 0.085937 0.69141 0.21094 1.0156 0.375v1.3906c-0.32422-0.21875-0.64844-0.37891-0.96875-0.48438-0.3125-0.10156-0.64062-0.15625-0.98438-0.15625-0.625 0-1.1211 0.20312-1.4844 0.60938-0.35547 0.39844-0.53125 0.94922-0.53125 1.6562 0 0.69922 0.17578 1.2461 0.53125 1.6406 0.36328 0.39844 0.85938 0.59375 1.4844 0.59375 0.34375 0 0.67188-0.046875 0.98438-0.14062 0.32031-0.10156 0.64453-0.26953 0.96875-0.5z"/>
  </symbol>
  <symbol id="b" overflow="visible">
   <path d="m4.5625-3.7031c-0.14844-0.0625-0.29297-0.10938-0.4375-0.14062-0.13672-0.03125-0.27734-0.046875-0.42188-0.046875-0.41797 0-0.74219 0.13672-0.96875 0.40625-0.21875 0.26172-0.32812 0.64062-0.32812 1.1406v2.3438h-1.625v-5.0781h1.625v0.82812c0.20703-0.33203 0.44531-0.57031 0.71875-0.71875 0.26953-0.15625 0.59375-0.23438 0.96875-0.23438 0.0625 0 0.125 0.007813 0.1875 0.015625 0.0625 0 0.14844 0.007812 0.26562 0.015625z"/>
  </symbol>
  <symbol id="a" overflow="visible">
   <path d="m5.8594-2.5625v0.46875h-3.7969c0.03125 0.38672 0.16406 0.67188 0.40625 0.85938 0.23828 0.1875 0.56641 0.28125 0.98438 0.28125 0.34375 0 0.69141-0.046875 1.0469-0.14062 0.36328-0.10156 0.73438-0.25781 1.1094-0.46875v1.25c-0.38672 0.14844-0.77344 0.25781-1.1562 0.32812-0.375 0.070312-0.75781 0.10938-1.1406 0.10938-0.92969 0-1.6484-0.22656-2.1562-0.6875-0.5-0.46875-0.75-1.125-0.75-1.9688 0-0.83203 0.25-1.4844 0.75-1.9531 0.5-0.47656 1.1875-0.71875 2.0625-0.71875 0.80078 0 1.4414 0.24219 1.9219 0.71875 0.47656 0.48047 0.71875 1.1211 0.71875 1.9219zm-1.6719-0.53125c0-0.3125-0.09375-0.5625-0.28125-0.75-0.17969-0.1875-0.41406-0.28125-0.70312-0.28125-0.3125 0-0.57031 0.089844-0.76562 0.26562-0.19922 0.17969-0.32031 0.43359-0.35938 0.76562z"/>
  </symbol>
  <symbol id="e" overflow="visible">
   <path d="m3.0625-2.2812c-0.34375 0-0.60547 0.058594-0.78125 0.17188-0.16797 0.11719-0.25 0.28125-0.25 0.5 0 0.21094 0.066406 0.37109 0.20312 0.48438 0.14453 0.11719 0.33594 0.17188 0.57812 0.17188 0.3125 0 0.57031-0.10938 0.78125-0.32812 0.20703-0.21875 0.3125-0.49219 0.3125-0.82812v-0.17188zm2.4844-0.625v2.9062h-1.6406v-0.75c-0.21875 0.30469-0.46484 0.52734-0.73438 0.67188-0.27344 0.13281-0.60547 0.20312-1 0.20312-0.52344 0-0.94922-0.14844-1.2812-0.45312-0.32422-0.3125-0.48438-0.71094-0.48438-1.2031 0-0.59375 0.20312-1.0234 0.60938-1.2969 0.40625-0.28125 1.0508-0.42188 1.9375-0.42188h0.95312v-0.125c0-0.25781-0.10547-0.44531-0.3125-0.5625-0.19922-0.125-0.51172-0.1875-0.9375-0.1875-0.35547 0-0.68359 0.039062-0.98438 0.10938-0.29297 0.0625-0.57031 0.16797-0.82812 0.3125v-1.25c0.34375-0.082031 0.69141-0.14453 1.0469-0.1875 0.35156-0.039063 0.70703-0.0625 1.0625-0.0625 0.91406 0 1.5781 0.18359 1.9844 0.54688 0.40625 0.35547 0.60938 0.9375 0.60938 1.75z"/>
  </symbol>
  <symbol id="d" overflow="visible">
   <path d="m2.5625-6.5312v1.4531h1.6719v1.1562h-1.6719v2.1562c0 0.24219 0.046875 0.40234 0.14062 0.48438 0.09375 0.085938 0.27344 0.125 0.54688 0.125h0.84375v1.1562h-1.3906c-0.64844 0-1.1055-0.12891-1.375-0.39062-0.26172-0.26953-0.39062-0.72656-0.39062-1.375v-2.1562h-0.8125v-1.1562h0.8125v-1.4531z"/>
  </symbol>
  <symbol id="c" overflow="visible">
   <path d="m4.2344-4.3438v-2.7188h1.6406v7.0625h-1.6406v-0.73438c-0.21875 0.30469-0.46484 0.52344-0.73438 0.65625-0.27344 0.13281-0.58594 0.20312-0.9375 0.20312-0.625 0-1.1406-0.24219-1.5469-0.73438-0.39844-0.5-0.59375-1.1406-0.59375-1.9219 0-0.78906 0.19531-1.4297 0.59375-1.9219 0.40625-0.5 0.92188-0.75 1.5469-0.75 0.35156 0 0.66406 0.074219 0.9375 0.21875 0.26953 0.13672 0.51562 0.35156 0.73438 0.64062zm-1.0625 3.2969c0.34375 0 0.60156-0.125 0.78125-0.375 0.1875-0.25781 0.28125-0.62891 0.28125-1.1094 0-0.48828-0.09375-0.85938-0.28125-1.1094-0.17969-0.25781-0.4375-0.39062-0.78125-0.39062s-0.60938 0.13281-0.79688 0.39062c-0.17969 0.25-0.26562 0.62109-0.26562 1.1094 0 0.48047 0.085937 0.85156 0.26562 1.1094 0.1875 0.25 0.45312 0.375 0.79688 0.375z"/>
  </symbol>
  <symbol id="k" overflow="visible">
   <path d="m3.4844-1.0469c0.35156 0 0.61719-0.125 0.79688-0.375 0.1875-0.25781 0.28125-0.62891 0.28125-1.1094 0-0.48828-0.09375-0.85938-0.28125-1.1094-0.17969-0.25781-0.44531-0.39062-0.79688-0.39062-0.34375 0-0.60938 0.13281-0.79688 0.39062-0.1875 0.25-0.28125 0.62109-0.28125 1.1094 0 0.48047 0.09375 0.85156 0.28125 1.1094 0.1875 0.25 0.45312 0.375 0.79688 0.375zm-1.0781-3.2969c0.21875-0.28906 0.46094-0.50391 0.73438-0.64062 0.28125-0.14453 0.59766-0.21875 0.95312-0.21875 0.625 0 1.1328 0.25 1.5312 0.75 0.40625 0.49219 0.60938 1.1328 0.60938 1.9219 0 0.78125-0.20312 1.4219-0.60938 1.9219-0.39844 0.49219-0.90625 0.73438-1.5312 0.73438-0.35547 0-0.67188-0.070312-0.95312-0.20312-0.27344-0.14453-0.51562-0.36328-0.73438-0.65625v0.73438h-1.625v-7.0625h1.625z"/>
  </symbol>
  <symbol id="j" overflow="visible">
   <path d="m0.10938-5.0781h1.625l1.375 3.4375 1.1562-3.4375h1.625l-2.1406 5.5625c-0.21094 0.5625-0.46094 0.95312-0.75 1.1719-0.28125 0.22656-0.65625 0.34375-1.125 0.34375h-0.9375v-1.0625h0.5c0.28125 0 0.48438-0.046875 0.60938-0.14062 0.125-0.085937 0.21875-0.24219 0.28125-0.46875l0.046875-0.14062z"/>
  </symbol>
  <symbol id="i" overflow="visible">
   <path d="m4.75-4.9219v1.2344c-0.34375-0.14453-0.67969-0.25391-1-0.32812-0.32422-0.070313-0.63281-0.10938-0.92188-0.10938-0.3125 0-0.54297 0.042969-0.6875 0.125-0.14844 0.074219-0.21875 0.1875-0.21875 0.34375 0 0.13672 0.050781 0.24219 0.15625 0.3125 0.11328 0.0625 0.32031 0.10938 0.625 0.14062l0.28125 0.046875c0.83203 0.10547 1.3906 0.27734 1.6719 0.51562 0.28906 0.24219 0.4375 0.62109 0.4375 1.1406 0 0.54297-0.20312 0.94922-0.60938 1.2188-0.39844 0.27344-0.99219 0.40625-1.7812 0.40625-0.33594 0-0.68359-0.027344-1.0469-0.078125-0.35547-0.050781-0.71875-0.12891-1.0938-0.23438v-1.2344c0.32031 0.15625 0.64844 0.27734 0.98438 0.35938 0.34375 0.074219 0.69141 0.10938 1.0469 0.10938 0.3125 0 0.54688-0.039063 0.70312-0.125 0.16406-0.09375 0.25-0.22266 0.25-0.39062 0-0.14453-0.058594-0.25391-0.17188-0.32812-0.10547-0.070313-0.32422-0.12891-0.65625-0.17188l-0.28125-0.03125c-0.71875-0.09375-1.2266-0.25781-1.5156-0.5-0.29297-0.25-0.4375-0.625-0.4375-1.125 0-0.53125 0.17969-0.92578 0.54688-1.1875 0.375-0.25781 0.94141-0.39062 1.7031-0.39062 0.30078 0 0.61328 0.023437 0.9375 0.0625 0.33203 0.042969 0.69141 0.11719 1.0781 0.21875z"/>
  </symbol>
  <symbol id="g" overflow="visible">
   <path d="m5.8906-3.0938v3.0938h-1.625v-2.375c0-0.4375-0.011719-0.73828-0.03125-0.90625-0.023437-0.16406-0.058594-0.28516-0.10938-0.35938-0.0625-0.10156-0.15234-0.1875-0.26562-0.25-0.10547-0.0625-0.22656-0.09375-0.35938-0.09375-0.34375 0-0.61719 0.13281-0.8125 0.39062-0.1875 0.26172-0.28125 0.625-0.28125 1.0938v2.5h-1.625v-5.0781h1.625v0.73438c0.25-0.28906 0.50781-0.50391 0.78125-0.64062 0.26953-0.14453 0.57031-0.21875 0.90625-0.21875 0.59375 0 1.0391 0.18359 1.3438 0.54688 0.30078 0.35547 0.45312 0.875 0.45312 1.5625z"/>
  </symbol>
  <symbol id="h" overflow="visible">
   <path d="m0.78125-5.0781h1.625v5.0781h-1.625zm0-1.9844h1.625v1.3281h-1.625z"/>
  </symbol>
  <symbol id="s" overflow="visible">
   <path d="m4.125-7.0625v1.0625h-0.89062c-0.24219 0-0.40625 0.042969-0.5 0.125-0.085937 0.085938-0.125 0.23047-0.125 0.4375v0.35938h1.3906v1.1562h-1.3906v3.9219h-1.625v-3.9219h-0.8125v-1.1562h0.8125v-0.35938c0-0.55078 0.14844-0.95703 0.45312-1.2188 0.3125-0.26953 0.78906-0.40625 1.4375-0.40625z"/>
  </symbol>
  <symbol id="f" overflow="visible">
   <path d="m3.2031-4.0469c-0.36719 0-0.64062 0.13281-0.82812 0.39062-0.1875 0.26172-0.28125 0.63672-0.28125 1.125 0 0.48047 0.09375 0.85156 0.28125 1.1094 0.1875 0.26172 0.46094 0.39062 0.82812 0.39062 0.35156 0 0.625-0.12891 0.8125-0.39062 0.1875-0.25781 0.28125-0.62891 0.28125-1.1094 0-0.48828-0.09375-0.86328-0.28125-1.125-0.1875-0.25781-0.46094-0.39062-0.8125-0.39062zm0-1.1562c0.875 0 1.5547 0.23438 2.0469 0.70312 0.48828 0.46875 0.73438 1.125 0.73438 1.9688 0 0.83594-0.24609 1.4844-0.73438 1.9531-0.49219 0.46875-1.1719 0.70312-2.0469 0.70312s-1.5625-0.23438-2.0625-0.70312c-0.49219-0.46875-0.73438-1.1172-0.73438-1.9531 0-0.84375 0.24219-1.5 0.73438-1.9688 0.5-0.46875 1.1875-0.70312 2.0625-0.70312z"/>
  </symbol>
  <symbol id="r" overflow="visible">
   <path d="m5.5-4.2344c0.19531-0.32031 0.4375-0.5625 0.71875-0.71875 0.28906-0.16406 0.60156-0.25 0.9375-0.25 0.58203 0 1.0234 0.18359 1.3281 0.54688 0.3125 0.35547 0.46875 0.875 0.46875 1.5625v3.0938h-1.6406v-2.6562c0.007812-0.03125 0.015625-0.066406 0.015625-0.10938v-0.1875c0-0.36328-0.054687-0.625-0.15625-0.78125-0.10547-0.16406-0.27734-0.25-0.51562-0.25-0.3125 0-0.55469 0.13281-0.71875 0.39062-0.16797 0.25-0.25781 0.61719-0.26562 1.0938v2.5h-1.625v-2.6562c0-0.5625-0.054687-0.92188-0.15625-1.0781-0.09375-0.16406-0.26562-0.25-0.51562-0.25-0.30469 0-0.54297 0.13281-0.71875 0.39062-0.16797 0.25-0.25 0.61719-0.25 1.0938v2.5h-1.6406v-5.0781h1.6406v0.73438c0.19531-0.28125 0.42578-0.49219 0.6875-0.64062 0.25781-0.14453 0.54688-0.21875 0.85938-0.21875 0.34375 0 0.64844 0.085937 0.92188 0.25 0.26953 0.16797 0.47656 0.40625 0.625 0.71875z"/>
  </symbol>
  <symbol id="q" overflow="visible">
   <path d="m5.8906-3.0938v3.0938h-1.625v-2.3594c0-0.44531-0.011719-0.75391-0.03125-0.92188-0.023437-0.16406-0.058594-0.28516-0.10938-0.35938-0.0625-0.10156-0.15234-0.1875-0.26562-0.25-0.10547-0.0625-0.22656-0.09375-0.35938-0.09375-0.34375 0-0.61719 0.13281-0.8125 0.39062-0.1875 0.26172-0.28125 0.625-0.28125 1.0938v2.5h-1.625v-7.0625h1.625v2.7188c0.25-0.28906 0.50781-0.50391 0.78125-0.64062 0.26953-0.14453 0.57031-0.21875 0.90625-0.21875 0.59375 0 1.0391 0.18359 1.3438 0.54688 0.30078 0.35547 0.45312 0.875 0.45312 1.5625z"/>
  </symbol>
  <symbol id="p" overflow="visible">
   <path d="m0.85938-6.7812h1.9531l2.4531 4.6562v-4.6562h1.6562v6.7812h-1.9531l-2.4531-4.6562v4.6562h-1.6562z"/>
  </symbol>
  <symbol id="o" overflow="visible">
   <path d="m0.71875-1.9844v-3.0938h1.6406v0.5c0 0.28125-0.007813 0.63281-0.015625 1.0469v0.82812c0 0.40625 0.007812 0.70312 0.03125 0.89062 0.03125 0.17969 0.066406 0.30469 0.10938 0.375 0.070313 0.11719 0.16016 0.20312 0.26562 0.26562 0.11328 0.054687 0.23828 0.078125 0.375 0.078125 0.33203 0 0.59766-0.12891 0.79688-0.39062 0.19531-0.25781 0.29688-0.625 0.29688-1.0938v-2.5h1.625v5.0781h-1.625v-0.73438c-0.25 0.29297-0.51562 0.51172-0.79688 0.65625-0.27344 0.13281-0.57031 0.20312-0.89062 0.20312-0.59375 0-1.0469-0.17578-1.3594-0.53125-0.30469-0.36328-0.45312-0.89062-0.45312-1.5781z"/>
  </symbol>
  <symbol id="n" overflow="visible">
   <path d="m0.85938-6.7812h2.8906c0.86328 0 1.5234 0.19531 1.9844 0.57812 0.46875 0.38672 0.70312 0.93359 0.70312 1.6406 0 0.71094-0.23438 1.2578-0.70312 1.6406-0.46094 0.38672-1.1211 0.57812-1.9844 0.57812h-1.1562v2.3438h-1.7344zm1.7344 1.2656v1.8906h0.96875c0.34375 0 0.60156-0.078125 0.78125-0.23438 0.1875-0.16406 0.28125-0.39844 0.28125-0.70312 0-0.30078-0.09375-0.53516-0.28125-0.70312-0.17969-0.16406-0.4375-0.25-0.78125-0.25z"/>
  </symbol>
  <symbol id="m" overflow="visible">
   <path d="m0.78125-5.0781h1.625v4.9844c0 0.6875-0.16797 1.207-0.5 1.5625-0.32422 0.35156-0.79297 0.53125-1.4062 0.53125h-0.8125v-1.0625h0.28125c0.3125 0 0.52344-0.074219 0.64062-0.21875 0.11328-0.13672 0.17188-0.40625 0.17188-0.8125zm0-1.9844h1.625v1.3281h-1.625z"/>
  </symbol>
  <symbol id="l" overflow="visible">
   <path d="m4.8906-4.9219v1.3281c-0.21875-0.15625-0.44531-0.26953-0.67188-0.34375-0.21875-0.070312-0.44922-0.10938-0.6875-0.10938-0.46094 0-0.8125 0.13672-1.0625 0.40625-0.25 0.26172-0.375 0.63281-0.375 1.1094 0 0.46875 0.125 0.83984 0.375 1.1094 0.25 0.26172 0.60156 0.39062 1.0625 0.39062 0.25 0 0.48828-0.035156 0.71875-0.10938 0.22656-0.070313 0.44141-0.1875 0.64062-0.34375v1.3281c-0.26172 0.09375-0.52344 0.16016-0.78125 0.20312-0.26172 0.050781-0.52344 0.078125-0.78125 0.078125-0.91797 0-1.6367-0.23438-2.1562-0.70312-0.51172-0.46875-0.76562-1.1172-0.76562-1.9531 0-0.84375 0.25391-1.5 0.76562-1.9688 0.51953-0.46875 1.2383-0.70312 2.1562-0.70312 0.26953 0 0.53125 0.027344 0.78125 0.078125 0.25781 0.042969 0.51953 0.10938 0.78125 0.20312z"/>
  </symbol>
 </defs>
 <g>
  <path d="m500.7 191.63c27.906-18.605 66.977-16.746 93.023 5.582 27.906 20.465 39.07 57.676 26.047 89.301-13.023 33.488-44.652 53.953-80 52.094h-152.56l53.953-156.28-115.35 156.28h-150.7c-35.348 1.8594-68.836-16.746-87.441-48.371-16.746-29.766-16.746-68.836 0-98.605 18.605-31.629 52.094-50.234 87.441-48.371-16.746-37.211 31.629-66.977 57.676-37.211 0-42.789 24.188-80 61.395-96.746 37.211-16.746 80-11.164 111.63 14.883 31.629 27.906 44.652 68.836 33.488 109.77 11.164-14.883 27.906-20.465 42.789-16.746 16.746 1.8594 29.766 14.883 33.488 31.629 3.7227 16.746-1.8594 33.488-14.883 42.789zm-230.7 262.32c0 57.676-87.441 57.676-87.441 0 0-16.746 33.488-76.277 42.789-94.883 11.164 18.605 44.652 78.141 44.652 94.883zm247.44 5.582c0 57.676-87.441 57.676-87.441 0 0-18.605 33.488-76.277 42.789-94.883 9.3008 18.605 44.652 76.277 44.652 94.883zm-160-72.559 44.652-130.23-124.65 169.3h65.117l-91.164 133.95 191.63-171.16-85.582-1.8594z" fill-rule="evenodd"/>
  <use x="74.652344" y="587.90625" xlink:href="#t"/>
  <use x="81.476562" y="587.90625" xlink:href="#b"/>
  <use x="86.066406" y="587.90625" xlink:href="#a"/>
  <use x="92.375" y="587.90625" xlink:href="#e"/>
  <use x="98.652344" y="587.90625" xlink:href="#d"/>
  <use x="103.097656" y="587.90625" xlink:href="#a"/>
  <use x="109.40625" y="587.90625" xlink:href="#c"/>
  <use x="119.304688" y="587.90625" xlink:href="#k"/>
  <use x="125.964844" y="587.90625" xlink:href="#j"/>
  <use x="135.265625" y="587.90625" xlink:href="#i"/>
  <use x="140.804688" y="587.90625" xlink:href="#e"/>
  <use x="147.082031" y="587.90625" xlink:href="#g"/>
  <use x="153.703125" y="587.90625" xlink:href="#c"/>
  <use x="160.363281" y="587.90625" xlink:href="#h"/>
  <use x="163.550781" y="587.90625" xlink:href="#h"/>
  <use x="166.738281" y="587.90625" xlink:href="#g"/>
  <use x="173.359375" y="587.90625" xlink:href="#c"/>
  <use x="180.019531" y="587.90625" xlink:href="#b"/>
  <use x="184.609375" y="587.90625" xlink:href="#e"/>
  <use x="74.652344" y="597.210937" xlink:href="#s"/>
  <use x="78.699219" y="597.210937" xlink:href="#b"/>
  <use x="83.285156" y="597.210937" xlink:href="#f"/>
  <use x="89.675781" y="597.210937" xlink:href="#r"/>
  <use x="102.609375" y="597.210937" xlink:href="#d"/>
  <use x="107.054687" y="597.210937" xlink:href="#q"/>
  <use x="113.675781" y="597.210937" xlink:href="#a"/>
  <use x="123.226562" y="597.210937" xlink:href="#p"/>
  <use x="131.011719" y="597.210937" xlink:href="#f"/>
  <use x="137.402344" y="597.210937" xlink:href="#o"/>
  <use x="144.023438" y="597.210937" xlink:href="#g"/>
  <use x="153.882812" y="597.210937" xlink:href="#n"/>
  <use x="160.703125" y="597.210937" xlink:href="#b"/>
  <use x="165.289062" y="597.210937" xlink:href="#f"/>
  <use x="171.679688" y="597.210937" xlink:href="#m"/>
  <use x="174.871094" y="597.210937" xlink:href="#a"/>
  <use x="181.179688" y="597.210937" xlink:href="#l"/>
  <use x="186.691406" y="597.210937" xlink:href="#d"/>
 </g>
</svg>
